<svg xmlns="http://www.w3.org/2000/svg" viewBox="0 0 24 24" fill="#00a651">
  <path d="M12 0c-.21 0-.418.07-.59.207l-9 6c-.523.348-.703 1.086-.355 1.66s1.086.703 1.66.355L12 2.207l8.285 5.817c.574.348 1.312.168 1.66-.355s.168-1.312-.355-1.66l-9-6C12.418.07 12.21 0 12 0zm-6.54 7.4c-.255 0-.51.098-.707.293L1.11 11.01c-.586.586-.586 1.536 0 2.122l4.65 4.65c.195.195.45.293.706.293s.51-.098.707-.293L12 13.768l5.527 3.927c.39.277.918.226 1.26-.116l4.65-4.65c.586-.586.586-1.536 0-2.122l-4.65-4.65c-.195-.195-.45-.293-.707-.293-.255 0-.51.098-.707.293L12 6.232 6.473 2.305c-.39-.277-.918-.226-1.26.116L.563 6.07c-.586.586-.586 1.536 0 2.122l4.65 4.65c.195.195.45.293.707.293s.51-.098.707-.293l4.527-3.217L12 13.768l-5.527-3.927L6.54 7.4z"/>
</svg>